<svg width="167" height="18" viewBox="0 0 167 18" fill="none" xmlns="http://www.w3.org/2000/svg">
<path d="M16.0571 11.0957L18.3874 0H27.7086C28.3441 0.0711262 29.827 0.213378 30.6744 1.06689C31.5218 1.92041 31.957 2.86283 31.7336 4.05419L29.827 14.083C29.6523 14.9326 29.4033 15.5766 28.556 16.4301C27.7886 17.203 26.4318 17.9238 25.3783 17.9238H14.4626L14.9979 15.5766C15.0586 15.3255 15.2124 14.9365 15.8479 14.2964C16.6152 13.5235 17.5453 13.2295 17.9664 13.2295H24.1072C24.3359 13.2295 24.9091 13.0619 25.3783 12.5893C25.6462 12.3194 25.7539 11.9803 25.802 11.7358L26.8612 5.9746C26.9336 5.53506 26.8188 5.24911 26.6494 4.90771C26.4799 4.5663 26.0844 4.48095 25.802 4.48095H21.9888L21.1414 8.9619C21.1016 9.17583 21.0143 9.94344 20.5058 10.4556C19.9974 10.9677 19.4297 11.0957 19.0229 11.0957H16.0571Z" fill="#44E858"/>
<path d="M47.2246 9.60203L47.7729 6.82811H35.9968C35.4652 6.82811 35.0622 6.82812 34.4267 7.25487C34.0325 7.51954 33.7611 7.86106 33.6429 8.53514L33.2192 11.0957H44.7994C45.2836 11.0957 45.8382 11.0309 46.3772 10.6689C46.9162 10.307 47.1602 9.93822 47.2246 9.60203Z" fill="#44E858"/>
<path d="M48.6839 2.77392L49.2323 0H37.4561C36.9245 0 36.5216 0 35.886 0.426757C35.4919 0.691421 35.2148 1.00355 35.1023 1.70703L34.6786 4.26757H46.2588C46.743 4.26757 47.2975 4.20275 47.8365 3.84081C48.3755 3.47888 48.5938 3.18568 48.6839 2.77392Z" fill="#44E858"/>
<path d="M45.9299 16.4301L46.5655 13.4429H34.7893C34.2577 13.4429 33.7676 13.6562 33.132 14.083C32.7379 14.3476 32.2656 14.707 32.16 15.3633L31.7363 17.9238H43.5048C43.989 17.9238 44.5436 17.859 45.0826 17.497C45.6216 17.1351 45.8438 16.7724 45.9299 16.4301Z" fill="#44E858"/>
<path d="M6.74082 0H15.6353L15.4265 1.70703C15.2138 2.77392 15.2116 3.20068 14.576 3.84081C13.9405 4.48095 13.5168 4.48095 12.8813 4.48095H8.64429C8.27366 4.48095 7.76888 4.44043 7.16371 4.69433C6.46199 4.98874 6.36719 5.52728 6.31633 5.76122L5.2571 11.0957C5.18649 11.3802 5.08763 12.0772 5.2571 12.5893C5.42658 13.1014 6.01562 13.2295 6.31633 13.2295H10.7651C11.0475 13.2295 11.8906 13.3378 12.2457 13.6562C12.5847 13.9976 12.8242 14.4931 12.6694 15.1499L12.0362 17.9238H3.56008C2.28901 17.9238 1.31417 17.0703 0.805833 16.2168C0.0433695 14.9365 0.241716 13.2295 0.382946 12.376L2.08022 4.26757C2.13672 3.96362 2.33444 2.85927 3.35129 1.49365C4.36815 0.128027 6.03467 0 6.74082 0Z" fill="#44E858"/>
<path d="M55.2511 6.82811L56.5195 0H53.5537C53.3419 0 52.8334 0.0853514 52.4945 0.426757C52.1555 0.768163 51.8984 1.2486 51.8589 1.49365L48.4694 17.9238H52.0708C52.4375 17.9238 52.8166 17.6344 53.0365 17.4153C53.2262 17.2264 53.4282 16.8966 53.5537 16.4301L54.4037 12.5893L56.734 10.2422C57.7836 12.3796 59.573 15.9299 59.8738 16.4301C60.207 16.9844 60.3053 17.2669 60.7302 17.5826C61.1664 17.9067 61.4618 17.9584 62.2514 18H65.6775L60.1209 7.68163L67.75 0H62.141L55.2511 6.82811Z" fill="#44E858"/>
<path d="M72 17.6539L75.6521 0.346191H79.6004C81.5416 0.346191 83.1456 0.659378 84.4123 1.28575C85.6955 1.89564 86.6415 2.74454 87.2502 3.83246C87.8589 4.90388 88.1632 6.13191 88.1632 7.51652C88.1632 9.44509 87.7766 11.1841 87.0034 12.7336C86.2302 14.2665 85.1362 15.4698 83.7214 16.3434C82.3066 17.2171 80.6615 17.6539 78.7861 17.6539H72ZM78.9095 13.6484C79.8801 13.6484 80.7109 13.3847 81.4018 12.8572C82.1092 12.3297 82.6439 11.6374 83.0058 10.7803C83.3677 9.90663 83.5487 8.95059 83.5487 7.91213C83.5487 6.82421 83.2279 5.95883 82.5863 5.31597C81.9447 4.67311 81.007 4.35169 79.7731 4.35169H79.2549L77.2808 13.6484H78.9095Z" fill="white"/>
<path d="M103.061 0.346191L102.245 4.22806H95.4389L94.845 6.99729H101.156L100.389 10.6319H94.0778L93.4096 13.772H100.339L99.5223 17.6539H88.1631L91.8258 0.346191H103.061Z" fill="white"/>
<path d="M109.233 18C107.455 18 105.398 17.6209 103.062 16.8626L103.925 12.8819C105.966 13.6236 107.719 13.9945 109.183 13.9945C109.989 13.9945 110.59 13.8709 110.985 13.6236C111.396 13.3599 111.602 12.956 111.602 12.4121C111.602 11.9011 111.413 11.4973 111.034 11.2006C110.672 10.8874 110.08 10.533 109.257 10.1374C108.5 9.77472 107.875 9.42857 107.381 9.0989C106.904 8.76923 106.493 8.32418 106.147 7.76374C105.801 7.2033 105.629 6.50275 105.629 5.66209C105.629 4.50824 105.908 3.50275 106.468 2.6456C107.027 1.78846 107.817 1.13736 108.838 0.692308C109.874 0.230769 111.067 0 112.417 0C113.338 0 114.301 0.115385 115.305 0.346154C116.309 0.56044 117.164 0.824176 117.872 1.13736L117.033 5.06868C116.259 4.73901 115.453 4.48352 114.614 4.3022C113.774 4.1044 113.017 4.00549 112.343 4.00549C110.96 4.00549 110.269 4.43407 110.269 5.29121C110.269 5.75275 110.442 6.12363 110.788 6.40385C111.15 6.66758 111.709 6.97253 112.466 7.31868C113.24 7.68132 113.873 8.02747 114.367 8.35714C114.86 8.68681 115.28 9.14835 115.626 9.74176C115.988 10.3187 116.169 11.0522 116.169 11.9423C116.169 13.8379 115.543 15.3214 114.293 16.3929C113.042 17.4643 111.355 18 109.233 18Z" fill="white"/>
<path d="M127.844 17.6538H117.872L118.637 14.0192H121.5L123.623 3.98077H120.76L121.525 0.346154H131.497L130.732 3.98077H127.869L125.746 14.0192H128.609L127.844 17.6538Z" fill="white"/>
<path d="M151.277 17.6538H147.327L150.981 0.346154H156.608L159.151 12.4121H159.521L162.064 0.346154H166.013L162.36 17.6538H156.732L154.189 5.58791H153.819L151.277 17.6538Z" fill="white"/>
<path d="M139.189 10.9038L139.905 7.51648H146.915L144.842 16.9863C144.2 17.283 143.435 17.522 142.546 17.7033C141.674 17.9011 140.761 18 139.806 18C138.259 18 136.861 17.7198 135.61 17.1593C134.359 16.5824 133.372 15.7335 132.648 14.6126C131.924 13.4753 131.562 12.1154 131.562 10.533C131.562 8.52198 131.982 6.71703 132.821 5.11813C133.677 3.51923 134.886 2.26648 136.449 1.35989C138.013 0.453297 139.831 0 141.904 0C143.024 0 144.011 0.0906597 144.867 0.271979C145.722 0.436814 146.611 0.692308 147.532 1.03846L146.644 4.94506C145.936 4.63187 145.229 4.39286 144.521 4.22802C143.813 4.0467 142.991 3.95604 142.053 3.95604C140.818 3.95604 139.757 4.21978 138.868 4.74725C137.98 5.25824 137.297 5.98352 136.82 6.92308C136.359 7.84615 136.128 8.92582 136.128 10.1621C136.128 11.4148 136.532 12.3709 137.338 13.0302C138.144 13.6896 139.206 14.0192 140.522 14.0192C141.016 14.0192 141.468 13.9451 141.88 13.7967L142.522 10.9038H139.189Z" fill="white"/>
</svg>
